<mxfile host="app.diagrams.net" modified="2023-08-03T01:38:12.065Z" agent="Mozilla/5.0 (Windows NT 10.0; Win64; x64) AppleWebKit/537.36 (KHTML, like Gecko) Chrome/115.0.0.0 Safari/537.36" version="21.6.6" etag="g8MHrUfOq7kJd3zkFQl5" type="github">
  <diagram name="Halaman-1" id="8CGj5g6DZ7_k0kGD8D7j">
    <mxGraphModel>
      <root>
        <mxCell id="0" />
        <mxCell id="1" parent="0" />
      </root>
    </mxGraphModel>
  </diagram>
</mxfile>
